#!OML:ASF F:\VICON\USERDATA\INSTALL\rory3\rory3.ASF
:FULLY-SPECIFIED
:DEGREES
4449
root -3.57434 15.4016 2.36659 3.27042 12.4367 8.35053
lowerback 30.9319 -2.34241 -0.703929
upperback 6.66375 -3.13662 -0.392977
thorax -9.40552 -1.40322 1.13667
lowerneck -19.7149 -2.03958 -6.91367
upperneck -6.99951 -1.22281 5.26935
head 1.20253 -0.301778 2.89931
rclavicle 5.56597e-015 -1.51076e-014
rhumerus 0.0494457 -37.4815 -39.3659
rradius 112.043
rwrist -22.9445
rhand -14.7932 10.0314
rfingers 7.12502
rthumb 11.3642 -19.6407
lclavicle 5.56597e-015 -1.51076e-014
lhumerus 1.44404 15.1233 40.7546
lradius 84.645
lwrist 19.1136
lhand -27.96 9.84487
lfingers 7.12502
lthumb -1.34725 39.8204
rfemur -45.3285 -8.99963 8.29075
rtibia 84.8595
rfoot -35.7191 -27.7343
rtoes -10.1141
lfemur -48.8326 5.84333 -25.8672
ltibia 77.0677
lfoot -24.3963 1.3475
ltoes -9.02592
4450
root -3.57584 15.4918 2.38824 3.31108 12.4006 8.40007
lowerback 30.7724 -2.3347 -0.590625
upperback 6.56489 -3.09265 -0.371498
thorax -9.44783 -1.3857 1.07599
lowerneck -19.6068 -2.08415 -6.88783
upperneck -7.04665 -1.29351 5.29263
head 1.17286 -0.338333 2.89599
rclavicle 1.94809e-014 7.95139e-016
rhumerus -0.427799 -37.6133 -39.1377
rradius 112.034
rwrist -23.2421
rhand -14.6835 9.90948
rfingers 7.12502
rthumb 11.47 -19.7567
lclavicle 1.94809e-014 7.95139e-016
lhumerus 1.09311 15.1561 40.7956
lradius 84.6893
lwrist 18.9903
lhand -27.9289 9.89688
lfingers 7.12502
lthumb -1.31725 39.8726
rfemur -44.7421 -8.73673 8.27425
rtibia 83.8795
rfoot -35.4713 -28.0042
rtoes -9.14025
lfemur -48.1575 5.77078 -25.8766
ltibia 76.0642
lfoot -24.12 1.36596
ltoes -8.81904
4451
root -3.57759 15.5817 2.4085 3.3219 12.4214 8.39054
lowerback 30.5498 -2.35132 -0.399998
upperback 6.5429 -3.05063 -0.323604
thorax -9.37342 -1.37213 0.996803
lowerneck -19.5982 -2.09405 -6.85283
upperneck -7.13203 -1.31153 5.23216
head 1.14148 -0.349068 2.86611
rclavicle 4.6118e-014 -1.66979e-014
rhumerus -0.910393 -37.7978 -38.9499
rradius 112.036
rwrist -23.4135
rhand -14.809 9.8525
rfingers 7.12502
rthumb 11.349 -19.8204
lclavicle 4.6118e-014 -1.66979e-014
lhumerus 0.849922 15.2663 40.9048
lradius 84.7238
lwrist 18.9544
lhand -27.8623 10.0388
lfingers 7.12502
lthumb -1.25296 40.0149
rfemur -44.1109 -8.50312 8.31426
rtibia 82.8943
rfoot -35.1886 -28.2514
rtoes -8.35613
lfemur -47.4827 5.63263 -25.8163
ltibia 75.0616
lfoot -23.826 1.35044
ltoes -8.44949
4452
root -3.57946 15.67 2.42791 3.3891 12.5228 8.46397
lowerback 30.3504 -2.39461 -0.295843
upperback 6.48099 -3.06945 -0.270037
thorax -9.34983 -1.38393 0.998417
lowerneck -19.6732 -2.07295 -7.01736
upperneck -7.13581 -1.24364 5.3762
head 1.15363 -0.306174 2.95351
rclavicle 5.56597e-015 -1.19271e-014
rhumerus -1.42603 -37.8812 -38.7507
rradius 112.064
rwrist -23.6119
rhand -14.958 9.72431
rfingers 7.12502
rthumb 11.2053 -19.9565
lclavicle 5.56597e-015 -1.19271e-014
lhumerus 0.516045 15.4392 41.0647
lradius 84.776
lwrist 18.9375
lhand -27.9253 10.0744
lfingers 7.12502
lthumb -1.31372 40.0501
rfemur -43.4756 -8.37689 8.26719
rtibia 81.9054
rfoot -34.8818 -28.4306
rtoes -8.28155
lfemur -46.8429 5.4145 -25.8596
ltibia 74.0167
lfoot -23.4496 1.47705
ltoes -8.65824
4453
root -3.58617 15.7549 2.44467 3.58731 12.7697 8.66937
lowerback 30.0787 -2.45969 -0.337638
upperback 6.37657 -3.16135 -0.217403
thorax -9.3306 -1.42649 1.10804
lowerneck -19.6396 -2.06752 -7.22957
upperneck -7.16247 -1.19385 5.61648
head 1.14331 -0.270088 3.08187
rclavicle -1.74931e-014 9.54166e-015
rhumerus -1.98093 -37.8878 -38.4933
rradius 112.06
rwrist -23.8624
rhand -15.2751 9.75636
rfingers 7.12502
rthumb 10.8994 -19.9408
lclavicle -1.74931e-014 9.54166e-015
lhumerus 0.139753 15.5905 41.235
lradius 84.8064
lwrist 18.9043
lhand -27.9628 10.0007
lfingers 7.12502
lthumb -1.35 39.9761
rfemur -42.9318 -8.43406 8.09583
rtibia 80.932
rfoot -34.6277 -28.4569
rtoes -7.8372
lfemur -46.3282 5.06111 -26.0431
ltibia 72.9593
lfoot -23.0143 1.59299
ltoes -8.98322
4454
root -3.58367 15.853 2.47947 3.57301 12.5225 8.84758
lowerback 29.7824 -2.32516 -0.416184
upperback 6.36766 -3.0186 -0.228676
thorax -9.19533 -1.36199 1.07711
lowerneck -19.4524 -2.07985 -7.18289
upperneck -7.30696 -1.22844 5.59677
head 1.06359 -0.290382 3.06064
rclavicle 6.36111e-015 -1.59028e-015
rhumerus -2.71678 -37.9248 -38.1217
rradius 112.042
rwrist -24.0024
rhand -15.6158 9.62031
rfingers 7.12502
rthumb 10.5708 -20.0938
lclavicle 6.36111e-015 -1.59028e-015
lhumerus -0.232129 15.612 41.3963
lradius 84.8832
lwrist 18.9076
lhand -28.1761 10.1827
lfingers 7.12502
lthumb -1.55601 40.1567
rfemur -42.1669 -8.02068 7.90571
rtibia 79.8981
rfoot -34.4905 -28.3655
rtoes -7.09674
lfemur -45.422 5.09 -26.1869
ltibia 71.84
lfoot -22.7237 1.72542
ltoes -9.12684
4455
root -3.58399 15.9462 2.5072 3.64238 12.4916 8.92109
lowerback 29.5377 -2.29292 -0.288652
upperback 6.28928 -2.94226 -0.223588
thorax -9.17267 -1.33084 0.974807
lowerneck -19.3297 -2.09954 -7.02967
upperneck -7.45053 -1.28969 5.49372
head 0.993815 -0.327678 2.98855
rclavicle 2.22639e-014 -3.10104e-014
rhumerus -3.52673 -37.9964 -37.7589
rradius 111.985
rwrist -23.959
rhand -15.5585 9.60365
rfingers 7.12502
rthumb 10.6261 -20.1077
lclavicle 2.22639e-014 -3.10104e-014
lhumerus -0.580699 15.6004 41.5358
lradius 84.9144
lwrist 18.8871
lhand -28.3984 10.1023
lfingers 7.12502
lthumb -1.77073 40.0747
rfemur -41.4739 -7.81467 7.86348
rtibia 78.8825
rfoot -34.4071 -28.288
rtoes -6.48117
lfemur -44.7001 4.90516 -26.2167
ltibia 70.7311
lfoot -22.6552 1.64072
ltoes -7.0981
4456
root -3.5879 16.0361 2.52766 3.73961 12.559 8.85001
lowerback 29.3062 -2.30907 -0.0918861
upperback 6.22421 -2.89776 -0.139552
thorax -9.13901 -1.31526 0.933133
lowerneck -19.484 -2.08761 -7.00314
upperneck -7.44408 -1.26786 5.53429
head 1.02083 -0.313897 3.00051
rclavicle -2.0276e-014 -1.11319e-014
rhumerus -4.28144 -38.0483 -37.4603
rradius 111.93
rwrist -23.8313
rhand -15.5097 9.60809
rfingers 7.12502
rthumb 10.6732 -20.1008
lclavicle -2.0276e-014 -1.11319e-014
lhumerus -0.901837 15.7459 41.7683
lradius 84.9395
lwrist 18.8674
lhand -28.3844 9.93529
lfingers 7.12502
lthumb -1.75719 39.9078
rfemur -40.8707 -7.60931 7.99709
rtibia 77.8562
rfoot -34.4222 -28.2501
rtoes -5.75426
lfemur -44.1099 4.66962 -26.0899
ltibia 69.622
lfoot -22.2267 1.71022
ltoes -6.66521
4457
root -3.59587 16.1292 2.54536 3.82632 12.56 8.78231
lowerback 29.1134 -2.27458 0.0157161
upperback 6.15901 -2.81473 -0.0453063
thorax -9.11944 -1.2794 0.941911
lowerneck -19.6336 -2.08177 -7.06093
upperneck -7.3768 -1.23889 5.70653
head 1.07135 -0.291605 3.07598
rclavicle 7.95139e-015 -3.57812e-014
rhumerus -5.10476 -38.0074 -37.1551
rradius 111.853
rwrist -23.7115
rhand -15.5755 9.53759
rfingers 7.12502
rthumb 10.6096 -20.1746
lclavicle 7.95139e-015 -3.57812e-014
lhumerus -1.24654 15.871 42.0273
lradius 84.9992
lwrist 18.8343
lhand -28.432 10.1639
lfingers 7.12502
lthumb -1.80312 40.136
rfemur -40.2947 -7.29785 8.14637
rtibia 76.8383
rfoot -34.5704 -28.188
rtoes -4.85546
lfemur -43.5149 4.46932 -25.9554
ltibia 68.4818
lfoot -21.7245 1.92092
ltoes -7.23223
4458
root -3.59988 16.2256 2.57076 3.87886 12.5025 8.85897
lowerback 28.9042 -2.20393 0.0601554
upperback 6.09382 -2.71348 -0.0282972
thorax -9.09281 -1.23444 0.893568
lowerneck -19.6318 -2.12552 -7.08612
upperneck -7.38455 -1.29066 5.88901
head 1.07615 -0.311871 3.14124
rclavicle 2.50469e-014 -1.66979e-014
rhumerus -6.07618 -37.8853 -36.769
rradius 111.742
rwrist -23.3985
rhand -15.8591 9.5749
rfingers 7.12502
rthumb 10.3361 -20.1511
lclavicle 2.50469e-014 -1.66979e-014
lhumerus -1.62217 15.8882 42.2548
lradius 85.0361
lwrist 18.7307
lhand -28.4849 10.2594
lfingers 7.12502
lthumb -1.85427 40.2311
rfemur -39.5758 -6.98595 8.10774
rtibia 75.756
rfoot -34.5814 -28.15
rtoes -4.31832
lfemur -42.746 4.31925 -25.9939
ltibia 67.2848
lfoot -21.2667 2.16857
ltoes -7.69961
4459
root -3.60058 16.3233 2.59982 3.93237 12.4133 8.95388
lowerback 28.6312 -2.14528 0.0899458
upperback 6.04695 -2.63192 -0.00787929
thorax -9.01244 -1.19901 0.862134
lowerneck -19.5768 -2.14316 -7.16986
upperneck -7.4633 -1.2971 6.08123
head 1.04555 -0.308228 3.22382
rclavicle -7.95139e-016 2.3059e-014
rhumerus -7.03829 -37.7087 -36.4409
rradius 111.631
rwrist -22.8641
rhand -16.134 9.45537
rfingers 7.12502
rthumb 10.0709 -20.2837
lclavicle -7.95139e-016 2.3059e-014
lhumerus -2.15576 16.0054 42.5311
lradius 85.1291
lwrist 18.5122
lhand -28.2444 10.0759
lfingers 7.12502
lthumb -1.62199 40.0494
rfemur -38.8438 -6.65308 8.03853
rtibia 74.5784
rfoot -34.2335 -28.35
rtoes -4.17483
lfemur -41.932 4.21131 -26.0639
ltibia 66.0485
lfoot -20.8846 2.34636
ltoes -7.88871
4460
root -3.60046 16.4221 2.62392 4.0344 12.357 9.12886
lowerback 28.4225 -2.11911 0.0347528
upperback 5.97665 -2.61449 0.0244636
thorax -8.9849 -1.19076 0.918527
lowerneck -19.5778 -2.11699 -7.28593
upperneck -7.52265 -1.23592 6.20623
head 1.02514 -0.271121 3.29472
rclavicle -1.66979e-014 3.18055e-015
rhumerus -7.88574 -37.4937 -36.2132
rradius 111.486
rwrist -22.3245
rhand -16.2573 9.564
rfingers 7.12502
rthumb 9.95195 -20.1808
lclavicle -1.66979e-014 3.18055e-015
lhumerus -2.90361 16.1825 42.8108
lradius 85.3364
lwrist 18.2326
lhand -28.1587 10.0439
lfingers 7.12502
lthumb -1.53918 40.0181
rfemur -38.158 -6.30993 7.85139
rtibia 73.3347
rfoot -33.7863 -28.5965
rtoes -3.91622
lfemur -41.1487 4.03223 -26.2302
ltibia 64.7594
lfoot -20.4743 2.60984
ltoes -8.24134
